<svg xmlns="http://www.w3.org/2000/svg" width="512" height="512" viewBox="0 0 512 512">
  <defs>
  <linearGradient id="g" x1="0" y1="0" x2="1" y2="1">
    <stop offset="0"   stop-color="#26A6A0"/>
    <stop offset="0.5" stop-color="#1E8C87"/>
    <stop offset="1"   stop-color="#197975"/>
  </linearGradient>
    <radialGradient id="glow" cx="0.5" cy="0.32" r="0.7">
      <stop offset="0" stop-color="#FFFFFF" stop-opacity="0.22"/>
      <stop offset="1" stop-color="#FFFFFF" stop-opacity="0"/>
    </radialGradient>
  </defs>
  <rect x="0" y="0" width="512" height="512" rx="115.2" ry="115.2" fill="url(#g)"/>
  <rect x="0" y="0" width="512" height="512" rx="115.2" ry="115.2" fill="url(#glow)"/>
  <g transform="translate(87.03999999999999,87.03999999999999) scale(1.6896)">
    <defs>
      <linearGradient id="aurBody" x1="0" y1="0" x2="0" y2="1">
        <stop offset="0"    stop-color="#FFFFFF"/>
        <stop offset="0.6"  stop-color="#FBFEFE"/>
        <stop offset="1"    stop-color="#D9EBE9"/>
      </linearGradient>
      <radialGradient id="aurShadow" cx="0.5" cy="0.5" r="0.5">
        <stop offset="0"   stop-color="#04332F" stop-opacity="0.40"/>
        <stop offset="0.7" stop-color="#04332F" stop-opacity="0.12"/>
        <stop offset="1"   stop-color="#04332F" stop-opacity="0"/>
      </radialGradient>
      <linearGradient id="aurHalo" x1="0" y1="0" x2="1" y2="0">
        <stop offset="0"    stop-color="#FFFFFF" stop-opacity="0.35"/>
        <stop offset="0.5"  stop-color="#FFFFFF" stop-opacity="1"/>
        <stop offset="1"    stop-color="#FFFFFF" stop-opacity="0.35"/>
      </linearGradient>
    </defs>

    <!-- aura / hale — markanın imza öğesi ("Aura"Pet) -->
    <g transform="rotate(-8 100 34)">
      <ellipse cx="100" cy="34" rx="41" ry="12.5" fill="none" stroke="url(#aurHalo)" stroke-width="5"/>
      <ellipse cx="100" cy="34" rx="41" ry="12.5" fill="none" stroke="#FFFFFF" stroke-width="1.4" stroke-opacity="0.55"/>
    </g>

    <!-- kuyruk → ucu sparkle -->
    <path d="M132,150 C158,150 169,172 158,188" fill="none" stroke="#FFFFFF" stroke-width="8.5" stroke-linecap="round" stroke-opacity="0.9"/>
    <path transform="translate(158,188)" d="M0,-13 L3.2,-3.2 L13,0 L3.2,3.2 L0,13 L-3.2,3.2 L-13,0 L-3.2,-3.2 Z" fill="#FFFFFF"/>

    <!-- yumuşak gövde gölgesi (derinlik) -->
    <ellipse cx="100" cy="150" rx="55" ry="40" fill="url(#aurShadow)"/>

    <!-- kanatlar (gövdeye sokulmuş, yumuşak) -->
    <ellipse cx="54"  cy="120" rx="15" ry="22" fill="#FFFFFF" fill-opacity="0.5" transform="rotate(-18 54 120)"/>
    <ellipse cx="146" cy="120" rx="15" ry="22" fill="#FFFFFF" fill-opacity="0.5" transform="rotate(18 146 120)"/>

    <!-- kulaklar -->
    <ellipse cx="80"  cy="62" rx="12.5" ry="19" fill="url(#aurBody)" transform="rotate(-10 80 62)"/>
    <ellipse cx="120" cy="62" rx="12.5" ry="19" fill="url(#aurBody)" transform="rotate(10 120 62)"/>
    <ellipse cx="80"  cy="64" rx="5"  ry="10" fill="#FF8FA3" fill-opacity="0.5" transform="rotate(-10 80 64)"/>
    <ellipse cx="120" cy="64" rx="5"  ry="10" fill="#FF8FA3" fill-opacity="0.5" transform="rotate(10 120 64)"/>

    <!-- gövde -->
    <ellipse cx="100" cy="118" rx="49" ry="48" fill="url(#aurBody)"/>

    <!-- gözler (button stili + parıltı) -->
    <ellipse cx="83"  cy="120" rx="8.5" ry="10.5" fill="#1A1D24"/>
    <ellipse cx="117" cy="120" rx="8.5" ry="10.5" fill="#1A1D24"/>
    <circle  cx="86"  cy="116" r="3.2" fill="#FFFFFF"/>
    <circle  cx="120" cy="116" r="3.2" fill="#FFFFFF"/>
    <circle  cx="80.5" cy="123.5" r="1.6" fill="#FFFFFF" fill-opacity="0.75"/>
    <circle  cx="114.5" cy="123.5" r="1.6" fill="#FFFFFF" fill-opacity="0.75"/>

    <!-- yanaklar -->
    <ellipse cx="67"  cy="134" rx="8.5" ry="6" fill="#FF8FA3" fill-opacity="0.6"/>
    <ellipse cx="133" cy="134" rx="8.5" ry="6" fill="#FF8FA3" fill-opacity="0.6"/>

    <!-- gülümseme -->
    <path d="M90,136 Q100,147 110,136" fill="none" stroke="#1A1D24" stroke-width="3" stroke-linecap="round"/>
  </g>
</svg>
